# xmcd CD database file
#
# Track frame offsets:
#	150
#	14972
#	34567
#	59965
#	76867
#	101957
#	127557
#	152987
#	167795
#	183917
#	193562
#	214835
#	226785
#	237712
#	260732
#	271165
#	292507
#
# Disc length: 4230 seconds
#
# Revision: 6
# Processed by: cddbd v1.5.2PL0 Copyright (c) Steve Scherf et al.
# Submitted via: CDex 1.77
#
DISCID=ef108411
DTITLE=Anouar Brahem - Vague
DYEAR=2003
DGENRE=Jazz
TTITLE0=Ronda
TTITLE1=Parfum de gitane
TTITLE2=Houdouth
TTITLE3=Le chien sur les genoux de la devineresse
TTITLE4=Sebika
TTITLE5=Leila au pays du caroussel, variations
TTITLE6=Diversion
TTITLE7=Comme une absence
TTITLE8=Nihawend lunga
TTITLE9=Claquent les voiles
TTITLE10=E la nave va
TTITLE11=Vague
TTITLE12=Bou naouara
TTITLE13=Mazad
TTITLE14=Hulmu rabia
TTITLE15=Astrakan cafe
TTITLE16=La nuit des yeux
EXTD=YEAR: 2003
EXTT0=
EXTT1=
EXTT2=
EXTT3=
EXTT4=
EXTT5=
EXTT6=
EXTT7=
EXTT8=
EXTT9=
EXTT10=
EXTT11=
EXTT12=
EXTT13=
EXTT14=
EXTT15=
EXTT16=
PLAYORDER=
